<svg width="14" height="14" viewBox="0 0 14 14" fill="none" xmlns="http://www.w3.org/2000/svg">
<path d="M11.2189 14.0002C10.6089 14.0002 9.75198 13.7796 8.46885 13.0627C6.90854 12.1877 5.70167 11.3799 4.14979 9.83207C2.65354 8.33676 1.92542 7.36864 0.906355 5.51426C-0.244895 3.42051 -0.048645 2.32301 0.17073 1.85395C0.43198 1.29332 0.817605 0.958011 1.31604 0.625198C1.59915 0.439709 1.89875 0.280704 2.21104 0.150198C2.24229 0.136761 2.27136 0.123948 2.29729 0.112386C2.45198 0.0426983 2.68636 -0.0626142 2.98323 0.0498858C3.18135 0.124261 3.35823 0.276448 3.63511 0.549886C4.20292 1.10989 4.97885 2.35707 5.2651 2.96957C5.45729 3.38239 5.58448 3.65489 5.58479 3.96051C5.58479 4.31832 5.40479 4.59426 5.18636 4.89207C5.14542 4.94801 5.10479 5.00145 5.06542 5.05332C4.8276 5.36582 4.77542 5.45614 4.80979 5.61739C4.87948 5.94145 5.39917 6.90614 6.25323 7.75832C7.10729 8.61051 8.04417 9.09739 8.36948 9.16676C8.53761 9.2027 8.62979 9.14832 8.95229 8.90207C8.99854 8.86676 9.04604 8.8302 9.09573 8.79364C9.42885 8.54582 9.69198 8.37051 10.0414 8.37051H10.0432C10.3473 8.37051 10.6076 8.50239 11.0389 8.71989C11.6014 9.00364 12.886 9.76957 13.4495 10.338C13.7235 10.6143 13.8764 10.7905 13.951 10.9883C14.0635 11.2861 13.9576 11.5196 13.8885 11.6758C13.877 11.7018 13.8642 11.7302 13.8507 11.7618C13.7192 12.0735 13.5592 12.3725 13.3729 12.6549C13.0407 13.1518 12.7042 13.5364 12.1423 13.798C11.8538 13.9345 11.538 14.0036 11.2189 14.0002Z" fill="#0851A2"/>
</svg>
