<svg width="12" height="16" viewBox="0 0 12 16" fill="none" xmlns="http://www.w3.org/2000/svg">
<path d="M5.20312 15.582C0.925781 9.42969 0.164062 8.78516 0.164062 6.5C0.164062 3.39453 2.6543 0.875 5.78906 0.875C8.89453 0.875 11.4141 3.39453 11.4141 6.5C11.4141 8.78516 10.623 9.42969 6.3457 15.582C6.08203 15.9922 5.4668 15.9922 5.20312 15.582ZM5.78906 8.84375C7.07812 8.84375 8.13281 7.81836 8.13281 6.5C8.13281 5.21094 7.07812 4.15625 5.78906 4.15625C4.4707 4.15625 3.44531 5.21094 3.44531 6.5C3.44531 7.81836 4.4707 8.84375 5.78906 8.84375Z" fill="#0851A2"/>
</svg>
