<svg width="16" height="12" viewBox="0 0 16 12" fill="none" xmlns="http://www.w3.org/2000/svg">
<path d="M14.8945 4.4707C15.0117 4.38281 15.1875 4.4707 15.1875 4.61719V10.5938C15.1875 11.3848 14.543 12 13.7812 12H1.59375C0.802734 12 0.1875 11.3848 0.1875 10.5938V4.61719C0.1875 4.4707 0.333984 4.38281 0.451172 4.4707C1.125 4.99805 1.97461 5.64258 4.96289 7.81055C5.57812 8.25 6.63281 9.2168 7.6875 9.2168C8.71289 9.2168 9.79688 8.25 10.3828 7.81055C13.3711 5.64258 14.2207 4.99805 14.8945 4.4707ZM7.6875 8.25C6.98438 8.2793 6.01758 7.40039 5.51953 7.04883C1.62305 4.23633 1.33008 3.97266 0.451172 3.26953C0.275391 3.15234 0.1875 2.94727 0.1875 2.71289V2.15625C0.1875 1.39453 0.802734 0.75 1.59375 0.75H13.7812C14.543 0.75 15.1875 1.39453 15.1875 2.15625V2.71289C15.1875 2.94727 15.0703 3.15234 14.8945 3.26953C14.0156 3.97266 13.7227 4.23633 9.82617 7.04883C9.32812 7.40039 8.36133 8.2793 7.6875 8.25Z" fill="#0851A2"/>
</svg>
